<?xml version="1.0" encoding="utf-8"?>
<!-- Generator: Adobe Illustrator 25.3.1, SVG Export Plug-In . SVG Version: 6.00 Build 0)  -->
<svg version="1.1" xmlns="http://www.w3.org/2000/svg" xmlns:xlink="http://www.w3.org/1999/xlink" x="0px" y="0px"
	 viewBox="0 0 708.66 708.66" style="enable-background:new 0 0 708.66 708.66;" xml:space="preserve">
<style type="text/css">
	.st0{display:none;}
	.st1{display:inline;}
	.st2{display:inline;fill:none;stroke:#000000;stroke-width:5;stroke-miterlimit:10;}
	.st3{fill:none;stroke:#000000;stroke-width:5;stroke-miterlimit:10;}
	.st4{display:inline;fill:#FFFFFF;stroke:#000000;stroke-width:5;stroke-miterlimit:10;}
</style>
<g id="Capa_4" class="st0">
	<g class="st1">
		<g>
			<path d="M652.84,452.7c-37-22.72-78.75-35.91-122.23-37.11c-40.19-1.11-79.97,7.34-118.24,18.99
				c-38.92,11.84-76.7,27.02-115.19,40.14c-36.6,12.47-74.38,23.46-113.19,25.6c-39.28,2.17-77.97-6.03-112.36-25.36
				c-4.72-2.66-9.34-5.49-13.86-8.47c-2.7-1.77-5.2,2.55-2.52,4.32c33.54,22.05,72.02,34.29,112.2,34.86
				c38.52,0.55,76.49-8.58,112.98-20.17c38.66-12.27,76.3-27.49,114.8-40.23c38.11-12.6,77.45-23.02,117.75-24.58
				c42.5-1.65,84.33,7.59,121.95,27.52c5.22,2.77,10.34,5.72,15.38,8.81C653.06,458.7,655.58,454.38,652.84,452.7L652.84,452.7z"/>
		</g>
	</g>
	<polyline class="st2" points="56.51,468.64 56.51,238.81 651.58,238.81 651.58,454.85 	"/>
</g>
<g id="Capa_3" class="st0">
	<polygon class="st2" points="354.72,510.06 56.51,354.33 354.72,198.99 651.58,354.33 	"/>
</g>
<g id="star_x2F_end">
	<path class="st3" d="M132.98,449.32c-49.76,0-90.09-42.45-90.09-94.82s40.34-94.82,90.09-94.82"/>
	<path class="st3" d="M574.68,449.32c49.76,0,90.09-42.45,90.09-94.82s-40.34-94.82-90.09-94.82"/>
	<line class="st3" x1="131.75" y1="259.68" x2="579.07" y2="259.68"/>
	<line class="st3" x1="576.54" y1="449.32" x2="127.47" y2="449.32"/>
</g>
<g id="Capa_2" class="st0">
	<polygon class="st4" points="538.6,446.99 56.51,446.99 170.26,257.39 651.58,257.97 	"/>
</g>
<g id="Capa_6" class="st0">
	<rect x="56.51" y="230.05" class="st2" width="595.07" height="248.95"/>
</g>
<g id="dEVAR" class="st0">
	<line class="st2" x1="55.81" y1="479" x2="652.28" y2="479"/>
	<line class="st2" x1="55.1" y1="230.05" x2="651.58" y2="230.05"/>
	<rect x="56.51" y="198.99" class="st2" width="595.07" height="311.08"/>
</g>
<g id="Capa_5" class="st0">
</g>
</svg>
