<?xml version="1.0" encoding="utf-8"?>
<!-- Generator: Adobe Illustrator 25.3.1, SVG Export Plug-In . SVG Version: 6.00 Build 0)  -->
<svg version="1.1" xmlns="http://www.w3.org/2000/svg" xmlns:xlink="http://www.w3.org/1999/xlink" x="0px" y="0px"
	 viewBox="0 0 619.1 271.1" style="enable-background:new 0 0 619.1 271.1;" xml:space="preserve">
<style type="text/css">
	.st0{display:none;}
	.st1{display:inline;fill:none;stroke:#000000;stroke-width:20;stroke-miterlimit:10;}
	.st2{display:inline;fill:#FFFFFF;stroke:#000000;stroke-width:20;stroke-miterlimit:10;}
	.st3{display:inline;}
	.st4{fill:#FFFFFF;}
	.st5{display:inline;fill:none;stroke:#000000;stroke-width:10;stroke-miterlimit:10;}
	.st6{fill:#FFFFFF;stroke:#000000;stroke-width:20;stroke-miterlimit:10;}
	.st7{fill:#FFFFFF;stroke:#000000;stroke-miterlimit:10;}
	.st8{display:inline;fill:#FFFFFF;stroke:#000000;stroke-width:10;stroke-miterlimit:10;}
</style>
<g id="Capa_1" class="st0">
	<g id="Capa_4">
		<path class="st1" d="M10.1,11h595.1l1.5,200.6c-218.1-100.3-403,127.6-595.1,13.8L10.1,11z"/>
	</g>
	<g id="star_x2F_end">
		<path class="st2" d="M519.5,10.8c50,7.9,90.6,60.1,90.6,124.5s-40.5,116.5-90.6,124.5L101.8,260c-50-8-90.6-60.1-90.6-124.5
			S51.8,19,101.8,11L519.5,10.8z"/>
	</g>
	<g id="Capa_8" class="st3">
		<g>
			<polygon class="st4" points="310.4,11 608.9,135.3 310.1,260 11.2,135.3 			"/>
			<g>
				<path d="M307.5,21.4c33.7,14,67.5,28.1,101.2,42.1c53.4,22.2,106.9,44.5,160.3,66.7c12.3,5.1,24.7,10.3,37,15.4
					c0-6.9,0-13.9,0-20.8c-33.8,14.1-67.5,28.2-101.3,42.3c-53.5,22.3-107,44.6-160.4,66.9c-12.4,5.2-24.7,10.3-37.1,15.5
					c1.9,0,3.8,0,5.7,0c-33.8-14.1-67.5-28.2-101.3-42.3c-53.5-22.3-107-44.6-160.4-66.9c-12.4-5.2-24.7-10.3-37.1-15.5
					c0,6.9,0,13.9,0,20.8c33.8-14,67.6-28.1,101.4-42.1C169,81.3,222.6,59.1,276.1,36.9c12.4-5.1,24.7-10.3,37.1-15.4
					c5.4-2.2,9.2-7.2,7.5-13.3c-1.4-5.1-7.9-9.8-13.3-7.5c-33.8,14-67.6,28.1-101.4,42.1C152.5,65,99,87.2,45.5,109.5
					c-12.4,5.1-24.7,10.3-37.1,15.4c-10.2,4.2-10.2,16.6,0,20.8c33.9,14.1,67.8,28.3,101.8,42.4c53.8,22.4,107.5,44.8,161.3,67.3
					c8,3.3,16,6.7,24.1,10c3.7,1.6,7.5,3.5,11.4,4.8c4.2,1.3,6.9-0.2,10.5-1.7c6.2-2.6,12.5-5.2,18.7-7.8
					c51.3-21.4,102.5-42.8,153.8-64.1c40-16.7,80-33.4,119.9-50c0.7-0.3,1.3-0.5,1.9-0.8c10.2-4.2,10.2-16.6,0-20.8
					c-33.7-14-67.5-28.1-101.2-42.1C457.1,60.5,403.7,38.3,350.2,16c-12.4-5.1-24.7-10.3-37-15.4c-5.4-2.2-11.9,2.4-13.3,7.5
					C298.2,14.4,302.1,19.2,307.5,21.4z"/>
			</g>
		</g>
	</g>
	<g id="Capa_2_1_">
		<g class="st3">
			<polygon class="st4" points="494.5,260 12.4,260 127.3,11.1 608.6,11.6 			"/>
			<g>
				<path d="M494.5,249.2c-16,0-32,0-48,0c-38.5,0-76.9,0-115.4,0c-46.3,0-92.6,0-139,0c-40.1,0-80.1,0-120.2,0
					c-13.3,0-26.6,0-39.9,0c-6.2,0-12.6-0.5-18.8,0c-0.3,0-0.6,0-0.8,0c3.1,5.4,6.2,10.8,9.3,16.2c13-28.1,26-56.2,38.9-84.3
					c20.6-44.6,41.2-89.2,61.8-133.8c4.7-10.2,9.5-20.5,14.2-30.8c-3.1,1.8-6.2,3.6-9.3,5.4c16,0,31.9,0,47.9,0.1
					c38.3,0,76.7,0.1,115,0.1c46.4,0.1,92.8,0.1,139.1,0.2c40.1,0,80.1,0.1,120.2,0.1c13.1,0,26.2,0,39.3,0c6.2,0,12.7,0.5,18.9,0
					c0.3,0,0.6,0,0.8,0c-3.1-5.4-6.2-10.8-9.3-16.2c-12.9,28-25.7,56-38.6,83.9c-20.5,44.6-41,89.2-61.5,133.7
					c-4.7,10.2-9.4,20.4-14.1,30.6c-2.4,5.3-1.5,11.6,3.9,14.8c4.6,2.7,12.3,1.5,14.8-3.9c12.9-28,25.7-56,38.6-83.9
					c20.5-44.6,41-89.2,61.5-133.7c4.7-10.2,9.4-20.4,14.1-30.6c3.3-7.2-0.5-16.2-9.3-16.2c-16,0-31.9,0-47.9-0.1
					c-38.3-0.1-76.7-0.1-115-0.1C399.3,0.6,353,0.6,306.6,0.5c-40.1-0.1-80.1-0.1-120.2-0.1c-19.4,0-38.9-0.7-58.2-0.1
					c-0.3,0-0.6,0-0.8,0c-3.5,0-7.8,2-9.3,5.3C105,33.7,92,61.8,79.1,89.9c-20.6,44.6-41.2,89.2-61.8,133.8
					c-4.7,10.2-9.5,20.5-14.2,30.8c-3.3,7.2,0.5,16.3,9.3,16.3c16,0,32,0,48,0c38.5,0,76.9,0,115.3,0c46.3,0,92.7,0,139,0
					c40.1,0,80.1,0,120.2,0c19.5,0,39.2,0.7,58.7,0c0.3,0,0.6,0,0.8,0C508.4,270.8,508.4,249.2,494.5,249.2z"/>
			</g>
		</g>
	</g>
	<g id="dEVAR">
		<rect x="11.9" y="11" class="st2" width="598.2" height="249"/>
		<line class="st5" x1="11.9" y1="42" x2="610" y2="42"/>
		<line class="st5" x1="610" y1="228.9" x2="11.9" y2="228.9"/>
	</g>
	<g id="Capa_6">
		<rect x="11.2" y="11" class="st2" width="598.8" height="249"/>
	</g>
	<g id="Capa_5">
	</g>
</g>
<g id="Capa_2">
	<g id="Capa_4_1_">
		<path class="st6" d="M9.4,10.2h599.5l1.5,202.3C390.6,111.3,204.4,341,10.8,226.3L9.4,10.2z"/>
	</g>
	<g id="star_x2F_end_1_" class="st0">
		<path class="st2" d="M519.7,10c50.1,8,90.7,60.6,90.7,125.5s-40.6,117.5-90.7,125.5l-418.5,0.2c-50.1-8-90.7-60.6-90.7-125.5
			S51.2,18.2,101.3,10.2L519.7,10z"/>
	</g>
	<g id="Capa_8_1_" class="st0">
		<g class="st3">
			<polygon class="st7" points="310.2,10.2 609.3,135.4 309.9,261.2 10.5,135.4 			"/>
			<g>
				<path class="st7" d="M307.3,20.6c33.8,14.2,67.6,28.3,101.4,42.5c53.5,22.4,107.1,44.8,160.6,67.3c12.4,5.2,24.7,10.4,37.1,15.5
					c0-7,0-14,0-21c-33.8,14.2-67.7,28.4-101.5,42.6c-53.6,22.5-107.2,45-160.7,67.5c-12.4,5.2-24.8,10.4-37.1,15.6
					c1.9,0,3.8,0,5.8,0c-33.8-14.2-67.7-28.4-101.5-42.6c-53.6-22.5-107.2-45-160.7-67.5c-12.4-5.2-24.8-10.4-37.1-15.6
					c0,7,0,14,0,21c33.9-14.2,67.7-28.3,101.6-42.5c53.6-22.4,107.3-44.8,160.9-67.3c12.4-5.2,24.8-10.4,37.2-15.5
					c5.4-2.3,9.2-7.2,7.6-13.4c-1.4-5.1-7.9-9.9-13.3-7.6C273.4,13.8,239.6,28,205.7,42.1C152.1,64.5,98.5,87,44.8,109.4
					C32.4,114.6,20,119.8,7.7,125c-10.2,4.3-10.2,16.7,0,21c34,14.3,68,28.5,101.9,42.8c53.8,22.6,107.7,45.2,161.5,67.8
					c8,3.4,16.1,6.7,24.1,10.1c3.7,1.6,7.5,3.5,11.4,4.8c4.2,1.4,6.9-0.2,10.6-1.7c6.3-2.6,12.5-5.3,18.8-7.9
					c51.4-21.6,102.7-43.1,154-64.7c40.1-16.8,80.1-33.6,120.2-50.5c0.7-0.3,1.3-0.5,1.9-0.8c10.2-4.3,10.2-16.7,0-21
					c-33.8-14.2-67.6-28.3-101.4-42.5c-53.5-22.4-107.1-44.8-160.6-67.3C337.8,10,325.4,4.8,313.1-0.3c-5.4-2.3-11.9,2.4-13.3,7.6
					C298,13.5,301.9,18.4,307.3,20.6z"/>
			</g>
		</g>
	</g>
	<g id="Capa_2_2_" class="st0">
		<g class="st3">
			<polygon class="st7" points="494.7,261.2 11.7,261.2 126.8,10.2 609,10.8 			"/>
			<g>
				<path class="st7" d="M494.7,250.3c-16,0-32.1,0-48.1,0c-38.5,0-77,0-115.6,0c-46.4,0-92.8,0-139.2,0c-40.1,0-80.3,0-120.4,0
					c-13.3,0-26.6,0-40,0c-6.2,0-12.6-0.5-18.8,0c-0.3,0-0.6,0-0.8,0c3.1,5.5,6.2,10.9,9.3,16.4c13-28.3,26-56.7,39-85
					c20.6-45,41.3-90,61.9-134.9c4.7-10.3,9.5-20.7,14.2-31c-3.1,1.8-6.2,3.6-9.3,5.4c16,0,32,0,48,0.1c38.4,0.1,76.8,0.1,115.2,0.1
					c46.5,0.1,92.9,0.1,139.4,0.2c40.1,0.1,80.3,0.1,120.4,0.1c13.1,0,26.3,0,39.4,0.1c6.2,0,12.7,0.5,18.9,0c0.3,0,0.6,0,0.8,0
					c-3.1-5.5-6.2-10.9-9.3-16.4c-12.9,28.2-25.8,56.4-38.6,84.6c-20.5,44.9-41.1,89.9-61.6,134.8c-4.7,10.3-9.4,20.6-14.1,30.9
					c-2.4,5.3-1.5,11.7,3.9,14.9c4.7,2.7,12.4,1.5,14.8-3.9c12.9-28.2,25.8-56.4,38.6-84.6c20.5-44.9,41.1-89.9,61.6-134.8
					c4.7-10.3,9.4-20.6,14.1-30.9c3.3-7.3-0.5-16.4-9.3-16.4c-16,0-32,0-48-0.1c-38.4-0.1-76.8-0.1-115.2-0.2
					c-46.5-0.1-92.9-0.1-139.4-0.2C266.3-0.5,226.1-0.6,186-0.6c-19.4,0-38.9-0.7-58.3-0.1c-0.3,0-0.6,0-0.8,0c-3.5,0-7.8,2-9.3,5.4
					c-13,28.3-26,56.7-39,85c-20.6,45-41.3,90-61.9,134.9c-4.7,10.3-9.5,20.7-14.2,31C-1,262.9,2.9,272,11.7,272c16,0,32.1,0,48.1,0
					c38.5,0,77,0,115.6,0c46.4,0,92.8,0,139.2,0c40.1,0,80.3,0,120.4,0c19.6,0,39.3,0.7,58.8,0c0.3,0,0.6,0,0.8,0
					C508.6,272,508.6,250.3,494.7,250.3z"/>
			</g>
		</g>
	</g>
	<g id="dEVAR_1_" class="st0">
		<rect x="11.2" y="10.2" class="st2" width="599.3" height="251"/>
		<line class="st8" x1="11.2" y1="41.4" x2="610.4" y2="41.4"/>
		<line class="st8" x1="610.4" y1="229.8" x2="11.2" y2="229.8"/>
	</g>
	<g id="Capa_6_1_" class="st0">
		<rect x="10.5" y="10.2" class="st2" width="599.9" height="251"/>
	</g>
	<g id="Capa_5_1_" class="st0">
	</g>
</g>
</svg>
