<?xml version="1.0" encoding="utf-8"?>
<!-- Generator: Adobe Illustrator 25.3.1, SVG Export Plug-In . SVG Version: 6.00 Build 0)  -->
<svg version="1.1" xmlns="http://www.w3.org/2000/svg" xmlns:xlink="http://www.w3.org/1999/xlink" x="0px" y="0px"
	 viewBox="0 0 619.13 271.07" style="enable-background:new 0 0 619.13 271.07;" xml:space="preserve">
<style type="text/css">
	.st0{display:none;}
	.st1{display:inline;fill:none;stroke:#000000;stroke-width:20;stroke-miterlimit:10;}
	.st2{display:inline;fill:#FFFFFF;stroke:#000000;stroke-width:20;stroke-miterlimit:10;}
	.st3{display:inline;}
	.st4{fill:#FFFFFF;}
	.st5{display:inline;fill:#FFFFFF;stroke:#000000;stroke-width:10;stroke-miterlimit:10;}
</style>
<g id="Capa_4" class="st0">
	<path class="st1" d="M10.07,11.03h595.07l1.45,200.62C388.51,111.3,203.63,339.21,11.52,225.43L10.07,11.03z"/>
</g>
<g id="star_x2F_end" class="st0">
	<path class="st2" d="M519.49,10.83c50.01,7.94,90.56,60.11,90.56,124.46s-40.54,116.53-90.56,124.48l-417.71,0.19
		c-50.01-7.96-90.56-60.13-90.56-124.48S51.77,18.97,101.79,11.03L519.49,10.83z"/>
</g>
<g id="Capa_8" class="st0">
	<g class="st3">
		<polygon class="st4" points="310.35,11.03 608.88,135.3 310.06,259.97 11.23,135.3 		"/>
		<g>
			<path d="M307.48,21.44c33.74,14.04,67.47,28.09,101.21,42.13c53.43,22.24,106.86,44.48,160.29,66.73
				c12.35,5.14,24.69,10.28,37.04,15.42c0-6.94,0-13.89,0-20.83c-33.77,14.09-67.54,28.18-101.31,42.27
				c-53.48,22.31-106.96,44.63-160.44,66.94c-12.36,5.16-24.72,10.31-37.08,15.47c1.91,0,3.83,0,5.74,0
				c-33.77-14.09-67.54-28.18-101.31-42.27c-53.48-22.31-106.96-44.63-160.44-66.94c-12.36-5.16-24.72-10.31-37.08-15.47
				c0,6.94,0,13.89,0,20.83c33.8-14.04,67.6-28.09,101.4-42.13c53.53-22.24,107.07-44.48,160.6-66.73
				c12.37-5.14,24.74-10.28,37.11-15.42c5.38-2.24,9.23-7.16,7.54-13.29c-1.4-5.08-7.87-9.8-13.29-7.54
				c-33.8,14.04-67.6,28.09-101.4,42.13c-53.53,22.24-107.07,44.48-160.6,66.73c-12.37,5.14-24.74,10.28-37.11,15.42
				c-10.19,4.23-10.18,16.58,0,20.83c33.92,14.15,67.83,28.3,101.75,42.45c53.75,22.43,107.51,44.85,161.26,67.28
				c8.02,3.35,16.04,6.69,24.07,10.04c3.74,1.56,7.51,3.52,11.38,4.75c4.22,1.34,6.93-0.18,10.54-1.69
				c6.25-2.61,12.5-5.21,18.74-7.82c51.26-21.38,102.51-42.77,153.77-64.15c39.98-16.68,79.96-33.36,119.94-50.04
				c0.65-0.27,1.3-0.54,1.94-0.81c10.17-4.24,10.2-16.58,0-20.83c-33.74-14.04-67.47-28.09-101.21-42.13
				c-53.43-22.24-106.86-44.48-160.29-66.73c-12.35-5.14-24.69-10.28-37.04-15.42c-5.39-2.24-11.88,2.42-13.29,7.54
				C298.22,14.37,302.07,19.19,307.48,21.44z"/>
		</g>
	</g>
</g>
<g id="Capa_2">
	<g>
		<polygon class="st4" points="494.48,259.98 12.39,259.97 127.3,11.07 608.62,11.65 		"/>
		<g>
			<path d="M494.48,249.18c-16.02,0-32.03,0-48.05,0c-38.45,0-76.9,0-115.35,0c-46.32,0-92.65,0-138.97,0c-40.06,0-80.12,0-120.18,0
				c-13.3,0-26.6,0-39.91,0c-6.2,0-12.61-0.46-18.8,0c-0.27,0.02-0.56,0-0.83,0c3.11,5.42,6.22,10.83,9.33,16.25
				c12.98-28.11,25.95-56.21,38.93-84.32c20.59-44.61,41.19-89.22,61.78-133.83c4.73-10.25,9.47-20.5,14.2-30.75
				c-3.11,1.78-6.22,3.57-9.33,5.35c15.97,0.02,31.93,0.04,47.9,0.06c38.34,0.05,76.68,0.09,115.02,0.14
				c46.37,0.06,92.75,0.11,139.12,0.17c40.07,0.05,80.14,0.1,120.21,0.14c13.12,0.02,26.24,0.03,39.35,0.05
				c6.23,0.01,12.66,0.48,18.87,0.02c0.27-0.02,0.56,0,0.84,0c-3.11-5.42-6.22-10.83-9.33-16.25
				c-12.86,27.98-25.72,55.96-38.58,83.94c-20.49,44.58-40.98,89.16-61.47,133.74c-4.69,10.21-9.39,20.43-14.08,30.64
				c-2.43,5.3-1.5,11.63,3.87,14.78c4.65,2.72,12.33,1.45,14.78-3.87c12.86-27.98,25.72-55.96,38.58-83.94
				c20.49-44.58,40.98-89.16,61.47-133.74c4.69-10.21,9.39-20.43,14.08-30.64c3.32-7.23-0.53-16.24-9.33-16.25
				c-15.97-0.02-31.93-0.04-47.9-0.06C522.38,0.75,484.04,0.7,445.7,0.66c-46.37-0.06-92.75-0.11-139.12-0.17
				c-40.07-0.05-80.14-0.1-120.21-0.14C167,0.32,147.5-0.37,128.14,0.27c-0.28,0.01-0.56,0-0.84,0c-3.52,0-7.78,1.99-9.33,5.35
				C105,33.73,92.03,61.84,79.05,89.94c-20.59,44.61-41.19,89.22-61.78,133.83c-4.73,10.25-9.47,20.5-14.2,30.75
				c-3.33,7.22,0.54,16.25,9.33,16.25c16.02,0,32.03,0,48.05,0c38.45,0,76.9,0,115.35,0c46.32,0,92.65,0,138.97,0
				c40.06,0,80.12,0,120.18,0c19.53,0,39.19,0.67,58.71,0c0.28-0.01,0.56,0,0.83,0C508.38,270.78,508.4,249.18,494.48,249.18z"/>
		</g>
	</g>
</g>
<g id="dEVAR" class="st0">
	<rect x="11.87" y="11.03" class="st2" width="598.18" height="248.95"/>
	<line class="st5" x1="11.87" y1="41.98" x2="610.05" y2="41.98"/>
	<line class="st5" x1="610.05" y1="228.91" x2="11.87" y2="228.91"/>
</g>
<g id="Capa_6" class="st0">
	<rect x="11.23" y="11.03" class="st2" width="598.82" height="248.95"/>
</g>
<g id="Capa_5" class="st0">
</g>
</svg>
