<?xml version="1.0" encoding="utf-8"?>
<!-- Generator: Adobe Illustrator 25.3.1, SVG Export Plug-In . SVG Version: 6.00 Build 0)  -->
<svg version="1.1" xmlns="http://www.w3.org/2000/svg" xmlns:xlink="http://www.w3.org/1999/xlink" x="0px" y="0px"
	 viewBox="0 0 708.66 708.66" style="enable-background:new 0 0 708.66 708.66;" xml:space="preserve">
<style type="text/css">
	.st0{display:none;}
	.st1{display:inline;}
	.st2{display:inline;fill:none;stroke:#000000;stroke-width:20;stroke-miterlimit:10;}
	.st3{fill:none;stroke:#000000;stroke-width:20;stroke-miterlimit:10;}
	.st4{display:inline;fill:#FFFFFF;stroke:#000000;stroke-width:10;stroke-miterlimit:10;}
	.st5{display:inline;fill:none;stroke:#000000;stroke-width:10;stroke-miterlimit:10;}
</style>
<g id="Capa_4" class="st0">
	<g class="st1">
		<g>
			<path d="M656.62,446.22c-38.12-23.41-81.24-36.9-126.02-38.14c-40.82-1.13-81.37,7.43-120.23,19.26
				c-38.92,11.84-76.7,27.02-115.19,40.14c-18.69,6.37-37.57,12.26-56.78,16.87c-9.45,2.27-18.98,4.22-28.58,5.73
				c-1.1,0.17-2.21,0.34-3.32,0.51c-0.58,0.09-3.06,0.11-3.32,0.47c0.23-0.33,2.15-0.28,0.67-0.09c-0.66,0.08-1.33,0.17-1.99,0.25
				c-1.32,0.16-2.65,0.31-3.98,0.46c-4.63,0.5-9.27,0.88-13.91,1.14c-9.47,0.52-18.98,0.51-28.45-0.14
				c-2.21-0.15-4.41-0.34-6.61-0.56c-1.1-0.11-2.2-0.23-3.3-0.36c-0.55-0.06-1.1-0.14-1.65-0.2c-2.63-0.31,1.76,0.27-0.31-0.04
				c-4.65-0.67-9.27-1.46-13.87-2.44c-9.65-2.05-19.15-4.84-28.38-8.33c-2.22-0.84-4.41-1.73-6.6-2.63c2.58,1.06-0.97-0.43-1.57-0.7
				c-1.33-0.59-2.65-1.19-3.96-1.81c-4.71-2.21-9.33-4.6-13.86-7.15c-4.72-2.66-9.34-5.49-13.86-8.47
				c-4.38-2.88-11.25-1.02-13.68,3.59c-2.64,5-1.09,10.61,3.59,13.68c34.61,22.76,74.54,35.3,115.99,35.89
				c39.15,0.56,77.88-8.66,114.98-20.43c38.66-12.27,76.3-27.49,114.8-40.23c19.22-6.36,38.66-12.11,58.42-16.5
				c9.89-2.2,19.85-4,29.88-5.44c0.56-0.08,1.92-0.35-0.57,0.07c0.69-0.12,1.4-0.18,2.09-0.27c1.16-0.15,2.33-0.29,3.49-0.42
				c2.56-0.3,5.13-0.56,7.7-0.79c4.9-0.44,9.82-0.76,14.74-0.95c10.12-0.39,20.27-0.23,30.37,0.57c2.37,0.19,4.74,0.41,7.1,0.67
				c1.19,0.13,2.37,0.27,3.56,0.41c0.17,0.02,2.53,0.31,0.81,0.1c-1.69-0.2,1.23,0.18,1.52,0.22c5.03,0.73,10.03,1.63,15,2.69
				c10.5,2.24,20.85,5.23,30.94,8.9c2.43,0.88,4.84,1.81,7.24,2.77c0.6,0.24,4.3,1.78,1.96,0.79c1.46,0.62,2.91,1.25,4.36,1.9
				c5.18,2.32,10.29,4.81,15.3,7.47c5.22,2.77,10.34,5.72,15.38,8.81c4.46,2.74,11.2,1.12,13.68-3.59
				C662.79,455.02,661.39,449.15,656.62,446.22L656.62,446.22z"/>
		</g>
	</g>
	<polyline class="st2" points="56.51,468.64 56.51,238.81 651.58,238.81 651.58,454.85 	"/>
</g>
<g id="Capa_3" class="st0">
	<polygon class="st2" points="354.72,510.06 56.51,354.33 354.72,198.99 651.58,354.33 	"/>
</g>
<g id="star_x2F_end">
	<path class="st3" d="M132.98,471.04c-49.76,0-90.09-52.17-90.09-116.53s40.34-116.53,90.09-116.53"/>
	<path class="st3" d="M574.68,471.04c49.76,0,90.09-52.17,90.09-116.53s-40.34-116.53-90.09-116.53"/>
	<line class="st3" x1="131.75" y1="237.99" x2="579.07" y2="237.99"/>
	<line class="st3" x1="576.54" y1="471.04" x2="127.47" y2="471.04"/>
</g>
<g id="Capa_2" class="st0">
	<polygon class="st4" points="538.6,446.99 56.51,446.99 170.26,257.39 651.58,257.97 	"/>
</g>
<g id="Capa_6" class="st0">
	<rect x="56.51" y="230.05" class="st5" width="595.07" height="248.95"/>
</g>
<g id="dEVAR" class="st0">
	<line class="st5" x1="55.81" y1="479" x2="652.28" y2="479"/>
	<line class="st5" x1="55.1" y1="230.05" x2="651.58" y2="230.05"/>
	<rect x="56.51" y="198.99" class="st5" width="595.07" height="311.08"/>
</g>
<g id="Capa_5" class="st0">
</g>
</svg>
